# This file uses centimeters as units for non-parametric coordinates.

mtllib Pen_01.mtl
g default
v 6.348440 -134.328541 9.140991
v 0.000000 -134.328541 13.753401
v -6.348436 -134.328541 9.140990
v -3.923549 -134.328541 1.677957
v 3.923550 -134.328541 1.677957
v 0.000000 -134.328541 7.078259
v -8.492321 -54.162460 9.622322
v 0.000000 -54.162460 15.792357
v 8.492325 -54.162460 9.622323
v 5.248542 -54.162460 -0.360998
v -5.248543 -54.162460 -0.360999
v -8.492321 -100.208934 9.622322
v 0.000000 -100.208934 15.792357
v 8.492325 -100.208934 9.622323
v 5.248542 -100.208934 -0.360998
v -5.248543 -100.208934 -0.360999
v -5.708078 -93.685678 1.053304
v -8.032785 -93.685678 8.208017
v -8.032785 -83.164820 8.208017
v -5.708078 -83.164820 1.053304
v -11.013961 -93.685678 -0.670681
v -13.338668 -93.685678 6.484032
v -13.338668 -83.164820 6.484032
v -11.013961 -83.164820 -0.670681
v -7.887002 -83.164820 0.345329
v -10.211709 -83.164820 7.500043
v -7.887002 -37.658949 0.345329
v -10.211709 -37.658949 7.500043
v -11.013961 -37.658949 -0.670681
v -13.338668 -37.658949 6.484032
v 5.295306 109.286217 8.646262
v 5.852817 95.875535 8.827410
v 0.000001 109.286217 12.493527
v 0.000001 95.875535 13.079726
v -5.295302 109.286217 8.646262
v -5.852813 95.875535 8.827405
v -3.617237 95.875535 1.947009
v -3.272677 109.286217 2.421261
v 3.272676 109.286217 2.421261
v 3.617236 95.875535 1.947014
v 0.000000 109.286217 6.925713
v 0.000000 95.771463 13.973399
v 0.000000 -54.162460 13.960253
v -6.762391 95.771463 9.060231
v -6.749886 -54.162460 9.056172
v 6.762394 95.771463 9.060234
v 6.749890 -54.162460 9.056172
v 4.179385 95.771463 1.110567
v 4.171658 -54.162460 1.121205
v -4.179385 95.771463 1.110565
v -4.171659 -54.162460 1.121205
vt 0.648603 0.107966
vt 0.500000 -0.000000
vt 0.351397 0.107966
vt 0.408159 0.282659
vt 0.591841 0.282659
vt 0.375000 0.312500
vt 0.425000 0.312500
vt 0.475000 0.312500
vt 0.525000 0.312500
vt 0.575000 0.312500
vt 0.625000 0.312500
vt 0.375000 0.688440
vt 0.425000 0.688440
vt 0.475000 0.688440
vt 0.525000 0.688440
vt 0.575000 0.688440
vt 0.625000 0.688440
vt 0.591842 0.717341
vt 0.408159 0.717341
vt 0.351397 0.892034
vt 0.500000 1.000000
vt 0.648603 0.892034
vt 0.500000 0.150000
vt 0.500000 0.837500
vt 0.475000 0.500470
vt 0.425000 0.500470
vt 0.625000 0.500470
vt 0.375000 0.500470
vt 0.575000 0.500470
vt 0.525000 0.500470
vt 0.425000 0.500470
vt 0.375000 0.500470
vt 0.475000 0.500470
vt 0.525000 0.500470
vt 0.575000 0.500470
vt 0.625000 0.500470
vt 0.475000 0.594455
vt 0.425000 0.594455
vt 0.625000 0.594455
vt 0.375000 0.594455
vt 0.575000 0.594455
vt 0.525000 0.594455
vt 0.475000 0.641447
vt 0.425000 0.641447
vt 0.625000 0.641447
vt 0.375000 0.641447
vt 0.575000 0.641447
vt 0.525000 0.641447
vt 0.495626 0.657169
vt 0.481719 0.640788
vt 0.475000 0.594455
vt 0.525000 0.594455
vt 0.525000 0.641447
vt 0.475000 0.641447
vt 0.475000 0.594455
vt 0.525000 0.594455
vt 0.009143 0.000000
vt 0.196643 0.000000
vt 0.195581 1.000000
vt 0.000000 1.000000
vt 0.525000 0.594455
vt 0.475000 0.594455
vt 0.475000 0.594455
vt 0.525000 0.594455
vt 0.525000 0.594455
vt 0.475000 0.594455
vt 0.475000 0.594455
vt 0.425000 0.594455
vt 0.375000 0.594455
vt 0.625000 0.594455
vt 0.575000 0.594455
vt 0.525000 0.594455
vn 0.950149 0.043670 0.308722
vn 0.950149 0.043670 0.308722
vn -0.000000 0.043670 0.999046
vn -0.000000 0.043670 0.999046
vn -0.950149 0.043670 0.308722
vn -0.950149 0.043670 0.308722
vn -0.587224 0.043670 -0.808246
vn -0.587224 0.043670 -0.808245
vn 0.587224 0.043670 -0.808245
vn 0.587224 0.043670 -0.808245
vn -0.000000 1.000000 0.000000
vn -0.000000 1.000000 0.000000
vn 0.000000 1.000000 0.000000
vn 0.000000 1.000000 0.000000
vn -0.000002 1.000000 0.000000
vn 0.000002 1.000000 0.000000
vn -0.000001 -1.000000 -0.000000
vn -0.000001 -1.000000 -0.000000
vn -0.000001 -1.000000 -0.000000
vn -0.000001 -1.000000 -0.000000
vn 0.000000 -1.000000 -0.000000
vn -0.000001 -1.000000 -0.000000
vn -0.000000 -0.000088 1.000000
vn -0.000000 -0.000088 1.000000
vn -0.951057 -0.000088 0.309017
vn -0.951057 -0.000088 0.309017
vn 0.951057 -0.000088 0.309017
vn 0.951057 -0.000088 0.309017
vn 0.587785 -0.000088 -0.809017
vn 0.587785 -0.000088 -0.809017
vn -0.587785 -0.000088 -0.809017
vn -0.587785 -0.000088 -0.809017
vn 0.000002 0.993287 0.115673
vn 0.106314 0.993911 0.028946
vn 0.104414 0.993869 0.036350
vn 0.000002 0.993287 0.115673
vn -0.106317 0.993911 0.028946
vn -0.104416 0.993869 0.036350
vn -0.058044 0.994710 -0.084757
vn -0.061448 0.994698 -0.082468
vn 0.058041 0.994710 -0.084757
vn 0.061445 0.994698 -0.082468
vn -0.000000 -0.023146 0.999732
vn -0.000000 -0.000000 1.000000
vn -0.587785 -0.000000 0.809017
vn -0.646666 -0.021658 0.762466
vn 0.951048 -0.024813 0.308045
vn 0.951057 -0.000000 0.309017
vn 0.587102 -0.027490 -0.809046
vn 0.587785 0.000000 -0.809017
vn -0.077440 -0.025998 -0.996658
vn 0.000000 0.000000 -1.000000
vn -0.951057 0.000000 -0.309017
vn -0.951057 0.000000 -0.309017
vn -0.951057 0.000000 -0.309017
vn -0.951057 0.000000 -0.309017
vn 0.000000 -0.059653 0.998219
vn -0.589182 -0.048399 0.806549
vn 0.948407 -0.063973 0.310535
vn 0.587429 -0.070987 -0.806156
vn -0.002814 -0.059761 -0.998209
vn -0.947634 -0.002481 -0.319348
vn -0.951056 0.000000 -0.309017
vn -0.951057 0.000000 -0.309017
vn -0.951057 0.000000 -0.309017
vn -0.951057 0.000000 -0.309017
vn -0.954490 -0.002580 -0.298233
vn -0.309017 -0.000000 0.951057
vn -0.309017 -0.000000 0.951057
vn -0.309017 -0.000000 0.951057
vn 0.000002 1.000000 0.000000
vn 0.000002 1.000000 0.000000
vn 0.000002 1.000000 0.000000
vn 0.000002 1.000000 0.000000
vn 0.309017 0.000000 -0.951057
vn 0.309017 0.000000 -0.951057
vn 0.309017 0.000000 -0.951057
vn -0.935392 -0.180748 -0.303927
vn -0.935392 -0.180748 -0.303927
vn -0.935392 -0.180748 -0.303927
vn -0.935392 -0.180748 -0.303927
vn -0.309005 0.009025 0.951018
vn -0.309004 0.009025 0.951018
vn -0.309005 0.009025 0.951018
vn 0.309017 -0.001049 -0.951056
vn 0.309017 -0.001049 -0.951056
vn 0.309017 -0.001049 -0.951056
vn 0.309017 0.000000 -0.951057
vn 0.309017 0.000000 -0.951057
vn -0.000000 1.000000 0.000000
vn -0.000000 1.000000 0.000000
vn -0.000000 1.000000 0.000000
vn -0.000000 1.000000 0.000000
vn -0.309017 -0.000000 0.951057
vn -0.309017 -0.000000 0.951057
vn 0.951057 -0.000000 0.309017
vn 0.951057 -0.000000 0.309017
vn 0.951057 -0.000000 0.309017
vn 0.951057 -0.000000 0.309017
vn 0.309017 0.000000 -0.951057
vn 0.309017 0.000000 -0.951057
vn -0.951057 0.000000 -0.309017
vn -0.951057 0.000000 -0.309017
vn -0.309017 -0.000000 0.951057
vn -0.309017 -0.000000 0.951057
vn -0.000001 1.000000 0.000000
vn -0.000001 1.000000 0.000000
vn -0.000001 1.000000 0.000000
vn -0.000001 1.000000 0.000000
vn -0.000000 1.000000 0.000000
vn -0.000000 1.000000 0.000000
vn 0.000001 1.000000 0.000000
vn 0.000001 1.000000 0.000000
vn -0.000001 1.000000 0.000000
vn -0.000001 1.000000 0.000000
s 1
g pCylinder11
usemtl blinn11SG
f 32/32/1 31/6/2 33/7/3 34/31/4
f 34/31/4 33/7/3 35/8/5 36/33/6
f 37/34/7 36/33/6 35/8/5 38/9/8
f 37/34/7 38/9/8 39/10/9 40/35/10
f 40/35/10 39/10/9 31/11/2 32/36/1
s 2
f 33/2/11 31/1/12 41/23/13
f 35/3/14 33/2/11 41/23/13
f 38/4/15 35/3/14 41/23/13
f 39/5/16 38/4/15 41/23/13
f 31/1/12 39/5/16 41/23/13
s 3
f 6/24/17 1/22/18 2/21/19
f 6/24/17 2/21/19 3/20/20
f 6/24/17 3/20/20 4/19/21
f 6/24/17 4/19/21 5/18/22
f 6/24/17 5/18/22 1/22/18
s 4
usemtl blinn6SG
f 43/68/23 42/26/24 44/25/25 45/67/26
f 47/69/27 46/28/28 42/26/24 43/68/23
f 49/71/29 48/29/30 46/27/28 47/70/27
f 51/72/31 50/30/32 48/29/30 49/71/29
f 51/72/31 45/67/26 44/25/25 50/30/32
s 5
f 42/26/33 46/28/34 32/32/35 34/31/36
f 44/25/37 42/26/33 34/31/36 36/33/38
f 50/30/39 44/25/37 36/33/38 37/34/40
f 48/29/41 50/30/39 37/34/40 40/35/42
f 46/27/34 48/29/41 40/35/42 32/36/35
s 6
usemtl blinn11SG
f 13/44/43 8/38/44 7/37/45 12/43/46
f 14/46/47 9/40/48 8/38/44 13/44/43
f 15/47/49 10/41/50 9/39/48 14/45/47
f 16/48/51 11/42/52 10/41/50 15/47/49
s 7
f 21/53/53 22/54/54 23/55/55 24/56/56
s 6
f 2/13/57 13/44/43 12/43/46 3/14/58
f 1/12/59 14/46/47 13/44/43 2/13/57
f 5/16/60 15/47/49 14/45/47 1/17/59
f 4/15/61 16/48/51 15/47/49 5/16/60
f 3/14/58 12/43/46 18/50/62
f 12/43/46 7/37/63 19/51/64 18/50/62
f 7/37/63 11/42/65 20/52/66 19/51/64
f 11/42/65 16/48/51 17/49/67 20/52/66
s 8
f 18/50/68 19/51/69 26/62/70
s off
f 19/51/71 20/52/72 25/61/73 26/62/74
s 9
f 20/52/75 17/49/76 25/61/77
s 6
f 4/15/61 17/49/67 16/48/51
s off
f 22/57/78 21/58/79 4/59/80 3/60/81
f 22/57/82 3/14/83 18/50/84
f 21/53/85 17/49/86 4/59/87
s 9
f 25/61/77 17/49/76 21/53/88 24/56/89
s off
f 28/63/90 27/64/91 29/65/92 30/66/93
s 8
f 18/50/68 26/62/70 23/55/94 22/54/95
s off
f 26/62/96 25/61/97 27/64/98 28/63/99
s 9
f 25/61/77 24/56/89 29/65/100 27/64/101
s 7
f 24/56/56 23/55/55 30/66/102 29/65/103
s 8
f 23/55/94 26/62/70 28/63/104 30/66/105
s 10
f 7/37/106 8/38/107 43/68/108 45/67/109
f 8/38/107 9/40/110 47/69/111 43/68/108
f 9/39/110 10/41/112 49/71/113 47/70/111
f 10/41/112 11/42/114 51/72/115 49/71/113
f 11/42/114 7/37/106 45/67/109 51/72/115
