# Blender v2.74 (sub 0) OBJ File: ''
# www.blender.org
mtllib pen.mtl
o Cone
v 0.000000 -0.000000 6.000000
v 0.000000 -0.500000 5.000000
v 0.250000 -0.433000 5.000000
v 0.433000 -0.250000 5.000000
v 0.500000 0.000000 5.000000
v 0.433000 0.250000 5.000000
v 0.250000 0.433000 5.000000
v 0.000000 0.500000 5.000000
v -0.250000 0.433000 5.000000
v -0.433000 0.250000 5.000000
v -0.500000 0.000000 5.000000
v -0.433000 -0.250000 5.000000
v -0.250000 -0.433000 5.000000
v 0.000000 0.000000 5.000000
vt 0.000000 1.000000
vt 0.000000 0.000000
vt 0.083333 0.000000
vt 0.083333 1.000000
vt 0.166667 0.000000
vt 0.166667 1.000000
vt 0.250000 0.000000
vt 0.250000 1.000000
vt 0.333333 0.000000
vt 0.333333 1.000000
vt 0.416667 0.000000
vt 0.416667 1.000000
vt 0.500000 0.000000
vt 0.500000 1.000000
vt 0.583333 0.000000
vt 0.583333 1.000000
vt 0.666667 0.000000
vt 0.666667 1.000000
vt 0.750000 0.000000
vt 0.750000 1.000000
vt 0.833333 0.000000
vt 0.833333 1.000000
vt 0.916667 0.000000
vt 0.916667 1.000000
vt 1.000000 0.000000
vt 1.000000 1.000000
vn 0.040700 -0.152000 0.987500
vn 0.000000 -0.894400 0.447200
vn 0.447200 -0.774600 0.447200
vn 0.774600 -0.447200 0.447200
vn 0.894400 -0.000000 0.447200
vn 0.774600 0.447200 0.447200
vn 0.447200 0.774600 0.447200
vn 0.000000 0.894400 0.447200
vn -0.447200 0.774600 0.447200
vn -0.774600 0.447200 0.447200
vn -0.894400 -0.000000 0.447200
vn -0.774600 -0.447200 0.447200
vn -0.447200 -0.774600 0.447200
vn 0.000000 0.000000 -1.000000
usemtl b0b0b0
s 1
f 1/1/1 2/2/2 3/3/3
f 1/4/1 3/3/3 4/5/4
f 1/6/1 4/5/4 5/7/5
f 1/8/1 5/7/5 6/9/6
f 1/10/1 6/9/6 7/11/7
f 1/12/1 7/11/7 8/13/8
f 1/14/1 8/13/8 9/15/9
f 1/16/1 9/15/9 10/17/10
f 1/18/1 10/17/10 11/19/11
f 1/20/1 11/19/11 12/21/12
f 1/22/1 12/21/12 13/23/13
f 1/24/1 13/23/13 2/25/2
f 3/4/14 2/1/14 14/2/14
f 4/6/14 3/4/14 14/2/14
f 5/8/14 4/6/14 14/2/14
f 6/10/14 5/8/14 14/2/14
f 7/12/14 6/10/14 14/2/14
f 8/14/14 7/12/14 14/2/14
f 9/16/14 8/14/14 14/2/14
f 10/18/14 9/16/14 14/2/14
f 11/20/14 10/18/14 14/2/14
f 12/22/14 11/20/14 14/2/14
f 13/24/14 12/22/14 14/2/14
f 2/26/14 13/24/14 14/2/14
o Cylinder
v 0.284216 -0.411366 5.000000
v 0.381014 -0.323824 5.000000
v 0.451814 -0.214134 5.000000
v 0.491915 -0.089920 5.000000
v 0.498350 0.040448 5.000000
v 0.470934 0.168091 5.000000
v 0.411365 0.284216 5.000000
v 0.323823 0.381014 5.000000
v 0.214134 0.451813 5.000000
v 0.089919 0.491914 5.000000
v -0.040449 0.498349 5.000000
v -0.168092 0.470933 5.000000
v -0.284216 0.411364 5.000000
v -0.381014 0.323823 5.000000
v -0.451814 0.214133 5.000000
v -0.491915 0.089919 5.000000
v -0.498350 -0.040450 5.000000
v -0.470934 -0.168093 5.000000
v -0.411365 -0.284217 5.000000
v -0.323823 -0.381015 5.000000
v -0.214134 -0.451815 5.000000
v -0.089919 -0.491916 5.000000
v 0.040449 -0.498351 5.000000
v 0.168092 -0.470934 5.000000
v -0.284216 -0.411364 -5.000000
v -0.168092 -0.470933 -5.000000
v -0.040449 -0.498349 -5.000000
v 0.089919 -0.491914 -5.000000
v 0.214134 -0.451813 -5.000000
v 0.323823 -0.381014 -5.000000
v 0.411365 -0.284216 -5.000000
v 0.470934 -0.168091 -5.000000
v 0.498350 -0.040448 -5.000000
v 0.491915 0.089920 -5.000000
v 0.451814 0.214134 -5.000000
v 0.381014 0.323824 -5.000000
v 0.284216 0.411366 -5.000000
v 0.168092 0.470934 -5.000000
v 0.040449 0.498351 -5.000000
v -0.089919 0.491916 -5.000000
v -0.214134 0.451815 -5.000000
v -0.323823 0.381015 -5.000000
v -0.411365 0.284217 -5.000000
v -0.470934 0.168093 -5.000000
v -0.498350 0.040450 -5.000000
v -0.491915 -0.089919 -5.000000
v -0.451814 -0.214133 -5.000000
v -0.381014 -0.323823 -5.000000
v 0.000000 -0.000001 5.000000
v 0.000000 0.000001 -5.000000
vt 0.000000 1.000000
vt 0.000000 0.000000
vt 0.041667 0.000000
vt 0.041667 1.000000
vt 0.083333 0.000000
vt 0.083333 1.000000
vt 0.125000 0.000000
vt 0.125000 1.000000
vt 0.166667 0.000000
vt 0.166667 1.000000
vt 0.208333 0.000000
vt 0.208333 1.000000
vt 0.250000 0.000000
vt 0.250000 1.000000
vt 0.291667 0.000000
vt 0.291667 1.000000
vt 0.333333 0.000000
vt 0.333333 1.000000
vt 0.375000 0.000000
vt 0.375000 1.000000
vt 0.416667 0.000000
vt 0.416667 1.000000
vt 0.458333 0.000000
vt 0.458333 1.000000
vt 0.500000 0.000000
vt 0.500000 1.000000
vt 0.541667 0.000000
vt 0.541667 1.000000
vt 0.583333 0.000000
vt 0.583333 1.000000
vt 0.625000 0.000000
vt 0.625000 1.000000
vt 0.666667 0.000000
vt 0.666667 1.000000
vt 0.708333 0.000000
vt 0.708333 1.000000
vt 0.750000 0.000000
vt 0.750000 1.000000
vt 0.791667 0.000000
vt 0.791667 1.000000
vt 0.833333 0.000000
vt 0.833333 1.000000
vt 0.875000 0.000000
vt 0.875000 1.000000
vt 0.916667 0.000000
vt 0.916667 1.000000
vt 0.958333 0.000000
vt 0.958333 1.000000
vt 1.000000 0.000000
vt 1.000000 1.000000
vn -0.031600 -0.999500 0.000000
vn 0.031600 -0.999500 -0.000000
vn 0.289400 -0.957200 -0.000000
vn 0.228000 -0.973700 0.000100
vn 0.527000 -0.849900 0.000000
vn 0.472300 -0.881400 -0.000100
vn 0.729200 -0.684200 -0.000100
vn 0.684200 -0.729200 0.000100
vn 0.881400 -0.472300 0.000100
vn 0.849900 -0.527000 -0.000000
vn 0.973700 -0.228000 -0.000100
vn 0.957200 -0.289400 0.000000
vn 0.999500 0.031600 -0.000000
vn 0.999500 -0.031600 0.000000
vn 0.957200 0.289400 -0.000000
vn 0.973700 0.228000 0.000100
vn 0.849900 0.527000 0.000000
vn 0.881400 0.472300 -0.000100
vn 0.684200 0.729200 -0.000100
vn 0.729200 0.684200 0.000100
vn 0.472300 0.881400 0.000100
vn 0.527000 0.849900 -0.000000
vn 0.228000 0.973700 -0.000100
vn 0.289400 0.957200 0.000000
vn -0.031600 0.999500 -0.000000
vn 0.031600 0.999500 0.000000
vn -0.289400 0.957200 -0.000000
vn -0.228000 0.973700 0.000100
vn -0.527000 0.849900 0.000000
vn -0.472300 0.881400 -0.000100
vn -0.729200 0.684200 -0.000100
vn -0.684200 0.729200 0.000100
vn -0.881400 0.472300 0.000100
vn -0.849900 0.527000 -0.000000
vn -0.973700 0.228000 -0.000100
vn -0.957200 0.289400 0.000000
vn -0.999500 -0.031600 -0.000000
vn -0.999500 0.031600 0.000000
vn -0.957200 -0.289400 -0.000000
vn -0.973700 -0.228000 0.000100
vn -0.849900 -0.527000 0.000000
vn -0.881400 -0.472300 -0.000100
vn -0.684200 -0.729200 -0.000100
vn -0.729200 -0.684200 0.000100
vn -0.472300 -0.881400 0.000100
vn -0.527000 -0.849900 -0.000000
vn -0.228000 -0.973700 -0.000100
vn -0.289400 -0.957200 0.000000
vn -0.000000 0.000000 1.000000
vn 0.000000 0.000000 -1.000000
usemtl b0b0b0
s 1
f 15/27/15 39/28/16 40/29/17 16/30/18
f 16/30/18 40/29/17 41/31/19 17/32/20
f 17/32/20 41/31/19 42/33/21 18/34/22
f 18/34/22 42/33/21 43/35/23 19/36/24
f 19/36/24 43/35/23 44/37/25 20/38/26
f 20/38/26 44/37/25 45/39/27 21/40/28
f 21/40/28 45/39/27 46/41/29 22/42/30
f 22/42/30 46/41/29 47/43/31 23/44/32
f 23/44/32 47/43/31 48/45/33 24/46/34
f 24/46/34 48/45/33 49/47/35 25/48/36
f 25/48/36 49/47/35 50/49/37 26/50/38
f 26/50/38 50/49/37 51/51/39 27/52/40
f 27/52/40 51/51/39 52/53/41 28/54/42
f 28/54/42 52/53/41 53/55/43 29/56/44
f 29/56/44 53/55/43 54/57/45 30/58/46
f 30/58/46 54/57/45 55/59/47 31/60/48
f 31/60/48 55/59/47 56/61/49 32/62/50
f 32/62/50 56/61/49 57/63/51 33/64/52
f 33/64/52 57/63/51 58/65/53 34/66/54
f 34/66/54 58/65/53 59/67/55 35/68/56
f 35/68/56 59/67/55 60/69/57 36/70/58
f 36/70/58 60/69/57 61/71/59 37/72/60
f 37/72/60 61/71/59 62/73/61 38/74/62
f 38/74/62 62/73/61 39/75/16 15/76/15
f 15/27/63 16/30/63 63/28/63
f 16/30/63 17/32/63 63/28/63
f 17/32/63 18/34/63 63/28/63
f 18/34/63 19/36/63 63/28/63
f 19/36/63 20/38/63 63/28/63
f 20/38/63 21/40/63 63/28/63
f 21/40/63 22/42/63 63/28/63
f 22/42/63 23/44/63 63/28/63
f 23/44/63 24/46/63 63/28/63
f 24/46/63 25/48/63 63/28/63
f 25/48/63 26/50/63 63/28/63
f 26/50/63 27/52/63 63/28/63
f 27/52/63 28/54/63 63/28/63
f 28/54/63 29/56/63 63/28/63
f 29/56/63 30/58/63 63/28/63
f 30/58/63 31/60/63 63/28/63
f 31/60/63 32/62/63 63/28/63
f 32/62/63 33/64/63 63/28/63
f 33/64/63 34/66/63 63/28/63
f 34/66/63 35/68/63 63/28/63
f 35/68/63 36/70/63 63/28/63
f 36/70/63 37/72/63 63/28/63
f 37/72/63 38/74/63 63/28/63
f 38/74/63 15/76/63 63/28/63
f 40/29/64 39/28/64 64/27/64
f 41/31/64 40/29/64 64/27/64
f 42/33/64 41/31/64 64/27/64
f 43/35/64 42/33/64 64/27/64
f 44/37/64 43/35/64 64/27/64
f 45/39/64 44/37/64 64/27/64
f 46/41/64 45/39/64 64/27/64
f 47/43/64 46/41/64 64/27/64
f 48/45/64 47/43/64 64/27/64
f 49/47/64 48/45/64 64/27/64
f 50/49/64 49/47/64 64/27/64
f 51/51/64 50/49/64 64/27/64
f 52/53/64 51/51/64 64/27/64
f 53/55/64 52/53/64 64/27/64
f 54/57/64 53/55/64 64/27/64
f 55/59/64 54/57/64 64/27/64
f 56/61/64 55/59/64 64/27/64
f 57/63/64 56/61/64 64/27/64
f 58/65/64 57/63/64 64/27/64
f 59/67/64 58/65/64 64/27/64
f 60/69/64 59/67/64 64/27/64
f 61/71/64 60/69/64 64/27/64
f 62/73/64 61/71/64 64/27/64
f 39/75/64 62/73/64 64/27/64
