# Blender v2.78 (sub 0) OBJ File: '16.blend'
# www.blender.org
mtllib Pen_01.mtl
g Circle.002_Circle.004
v -0.035304 0.008106 5.057067
v -0.057124 0.075259 5.057067
v 0.000000 0.116763 5.057067
v 0.057125 0.075259 5.057067
v 0.035305 0.008106 5.057067
v 0.000000 0.056699 5.094189
v 0.020752 0.120566 5.027035
v 0.054329 0.017227 5.027035
v 0.067154 0.056699 5.027035
v -0.020751 -0.007168 5.027035
v 0.020752 -0.007168 5.027035
v -0.054328 0.039046 5.062340
v -0.033576 0.102913 5.062340
v -0.033576 0.067608 5.084160
v 0.033577 0.102913 5.062340
v 0.000000 0.092003 5.084160
v -0.020751 0.028137 5.084160
v 0.000000 -0.000425 5.062340
v 0.054328 0.039046 5.062340
v 0.020752 0.028137 5.084160
v 0.033577 0.067608 5.084160
v 0.054329 0.096171 5.027035
v -0.054328 0.096171 5.027035
v -0.020751 0.120566 5.027035
v -0.054328 0.017227 5.027035
v -0.067154 0.056699 5.027035
v -0.431258 0.056699 -4.269199
v -0.304946 0.361644 -4.269199
v -0.000000 0.487957 -4.269199
v 0.304945 0.361644 -4.269199
v 0.431258 0.056698 -4.269199
v 0.304945 -0.248247 -4.269199
v -0.000000 -0.374560 -4.269199
v -0.304946 -0.248247 -4.269199
v -0.431258 0.056699 -3.997909
v -0.304946 0.361644 -3.997909
v -0.000000 0.487957 -3.997909
v 0.304945 0.361644 -3.997909
v 0.431258 0.056698 -3.997909
v 0.304945 -0.248247 -3.997909
v -0.000000 -0.374560 -3.997909
v -0.304946 -0.248247 -3.997909
v -0.327954 0.056699 -3.997909
v -0.231899 0.288597 -3.997909
v -0.000000 0.384653 -3.997909
v 0.231898 0.288597 -3.997909
v 0.327954 0.056698 -3.997909
v 0.231898 -0.175200 -3.997909
v -0.000000 -0.271256 -3.997909
v -0.231899 -0.175200 -3.997909
v -0.327954 0.056699 -3.893828
v -0.231899 0.288597 -3.893828
v -0.000000 0.384653 -3.893828
v 0.231898 0.288597 -3.893828
v 0.327954 0.056698 -3.893828
v 0.231898 -0.175200 -3.893828
v -0.000000 -0.271256 -3.893828
v -0.231899 -0.175200 -3.893828
v -0.433087 0.056699 -3.893828
v -0.306239 0.362937 -3.893828
v -0.000000 0.489786 -3.893828
v 0.306239 0.362937 -3.893828
v 0.433087 0.056698 -3.893828
v 0.306239 -0.249541 -3.893828
v -0.000000 -0.376389 -3.893828
v -0.306239 -0.249541 -3.893828
v -0.433087 0.056699 3.691625
v -0.306239 0.362937 3.691625
v 0.000000 0.489786 3.691625
v 0.306239 0.362937 3.691625
v 0.433087 0.056698 3.691625
v 0.306239 -0.249541 3.691625
v 0.000000 -0.376389 3.691625
v -0.306239 -0.249541 3.691625
v 0.152105 0.071009 -4.000271
v 0.152105 0.634987 -4.000271
v -0.152105 0.071009 -4.000271
v -0.152105 0.634987 -4.000271
v 0.152105 0.071009 -4.220991
v 0.152105 0.634987 -4.220991
v -0.152105 0.071009 -4.220991
v -0.152105 0.634987 -4.220991
v 0.152105 0.526504 -4.000271
v -0.152105 0.526504 -4.000271
v -0.152105 0.526504 -4.220991
v 0.152105 0.526504 -4.220991
v 0.152105 0.526504 -1.485746
v 0.152105 0.634987 -1.485746
v -0.152105 0.634987 -1.485746
v -0.152105 0.526504 -1.485746
v -0.216615 0.056699 -4.269199
v -0.153170 0.209868 -4.269199
v -0.000000 0.273313 -4.269199
v 0.153170 0.209868 -4.269199
v 0.216615 0.056699 -4.269199
v 0.153170 -0.096471 -4.269199
v -0.000000 -0.159916 -4.269199
v -0.153170 -0.096471 -4.269199
v -0.216615 0.056699 -4.226139
v -0.153170 0.209868 -4.226139
v -0.000000 0.273313 -4.226139
v 0.153170 0.209868 -4.226139
v 0.216615 0.056699 -4.226139
v 0.153170 -0.096471 -4.226139
v -0.000000 -0.159916 -4.226139
v -0.153170 -0.096471 -4.226139
v -0.182389 0.056699 -4.226139
v -0.128968 0.185667 -4.226139
v -0.000000 0.239087 -4.226139
v 0.128968 0.185667 -4.226139
v 0.182388 0.056699 -4.226139
v 0.128968 -0.072270 -4.226139
v -0.000000 -0.125690 -4.226139
v -0.128968 -0.072270 -4.226139
v -0.175319 0.056699 -4.979361
v -0.123969 0.180668 -4.979361
v -0.000000 0.232017 -4.979361
v 0.123969 0.180668 -4.979361
v 0.175318 0.056699 -4.979361
v 0.123969 -0.067271 -4.979361
v -0.000000 -0.118620 -4.979361
v -0.123969 -0.067271 -4.979361
v -0.000000 0.056699 -4.979361
v 0.000000 -0.273224 3.691625
v 0.233290 -0.176592 3.691625
v 0.329922 0.056698 3.691625
v 0.233290 0.289989 3.691625
v 0.000000 0.386621 3.691625
v -0.233290 0.289989 3.691625
v -0.329922 0.056699 3.691625
v -0.233290 -0.176592 3.691625
v 0.000000 -0.273224 3.705945
v 0.233290 -0.176592 3.705945
v 0.329922 0.056698 3.705945
v 0.233290 0.289989 3.705945
v 0.000000 0.386621 3.705945
v -0.233290 0.289989 3.705945
v -0.329922 0.056699 3.705945
v -0.233290 -0.176592 3.705945
v 0.000000 -0.373564 3.705945
v 0.304242 -0.247543 3.705945
v 0.430263 0.056698 3.705945
v 0.304242 0.360940 3.705945
v 0.000000 0.486961 3.705945
v -0.304241 0.360940 3.705945
v -0.430263 0.056699 3.705945
v -0.304241 -0.247543 3.705945
v 0.000000 -0.101086 4.824718
v 0.111570 -0.054872 4.824718
v 0.157784 0.056698 4.824718
v 0.111570 0.168269 4.824718
v 0.000000 0.214483 4.824718
v -0.111570 0.168269 4.824718
v -0.157784 0.056699 4.824718
v -0.111570 -0.054872 4.824718
v 0.000000 -0.020613 5.032206
v 0.054668 0.002031 5.032206
v 0.077312 0.056698 5.032206
v 0.054668 0.111366 5.032206
v 0.000000 0.134010 5.032206
v -0.054667 0.111366 5.032206
v -0.077311 0.056699 5.032206
v -0.054667 0.002031 5.032206
v 0.000000 0.056698 5.032206
v -0.401852 0.056699 0.883531
v -0.284152 0.340851 0.883531
v 0.000000 0.458550 0.883531
v 0.284152 0.340851 0.883531
v 0.401852 0.056698 0.883531
v 0.284152 -0.227454 0.883531
v 0.000000 -0.345153 0.883531
v -0.284152 -0.227454 0.883531
v -0.401852 0.056699 3.144838
v -0.284152 0.340851 3.144838
v 0.000000 0.458550 3.144838
v 0.284152 0.340851 3.144838
v 0.401852 0.056698 3.144838
v 0.284152 -0.227454 3.144838
v 0.000000 -0.345153 3.144838
v -0.284152 -0.227454 3.144838
v -0.339355 0.396053 0.883531
v -0.479920 0.056699 0.883531
v 0.000000 0.536619 0.883531
v 0.339355 0.396053 0.883531
v 0.479920 0.056698 0.883531
v 0.339355 -0.282656 0.883531
v 0.000000 -0.423222 0.883531
v -0.339355 -0.282656 0.883531
v -0.339355 0.396053 3.144838
v -0.479920 0.056699 3.144838
v 0.000000 0.536619 3.144838
v 0.339355 0.396053 3.144838
v 0.479920 0.056698 3.144838
v 0.339355 -0.282656 3.144838
v 0.000000 -0.423222 3.144838
v -0.339355 -0.282656 3.144838
vn 0.3151 -0.1024 0.9435
vn 0.2680 -0.7002 0.6617
vn 0.1947 0.2680 0.9435
vn -0.1947 0.2680 0.9435
vn -0.3151 -0.1024 0.9435
vn 0.2680 -0.9050 0.3304
vn 0.9435 -0.0247 0.3304
vn 0.3151 0.8897 0.3304
vn -0.7488 0.5746 0.3304
vn -0.7779 -0.5346 0.3304
vn 0.5831 -0.8026 0.1256
vn 0.9435 0.3066 0.1256
vn 0.0000 0.9921 0.1256
vn -0.9435 0.3066 0.1256
vn -0.5831 -0.8026 0.1256
vn -0.9342 -0.3035 0.1876
vn -0.9435 -0.0247 0.3304
vn -0.5774 0.7946 0.1876
vn -0.3151 0.8897 0.3304
vn 0.5774 0.7946 0.1876
vn 0.7488 0.5746 0.3304
vn 0.9342 -0.3035 0.1876
vn 0.7779 -0.5346 0.3304
vn 0.0000 -0.9822 0.1876
vn -0.2680 -0.9050 0.3304
vn -0.5831 -0.4713 0.6617
vn -0.5774 -0.1876 0.7946
vn -0.7488 0.0385 0.6617
vn -0.6284 0.4090 0.6617
vn -0.3568 0.4911 0.7946
vn -0.1948 0.7240 0.6617
vn 0.1948 0.7240 0.6617
vn 0.3568 0.4911 0.7946
vn 0.6284 0.4090 0.6617
vn -0.2680 -0.7002 0.6617
vn 0.0000 -0.6071 0.7947
vn 0.0000 -0.3313 0.9435
vn 0.7488 0.0385 0.6617
vn 0.5774 -0.1876 0.7947
vn 0.5831 -0.4713 0.6617
vn -0.9239 0.3827 0.0000
vn -0.9239 -0.3827 0.0000
vn 0.3827 -0.9239 0.0000
vn 0.9239 0.3827 0.0000
vn -0.3827 0.9239 -0.0000
vn -0.3827 -0.9239 0.0000
vn 0.9239 -0.3827 -0.0000
vn 0.3827 0.9239 0.0000
vn 0.0000 0.0000 -1.0000
vn -0.3827 -0.9238 -0.0087
vn 0.9238 -0.3827 -0.0087
vn 0.3827 0.9238 -0.0087
vn -0.9238 0.3827 -0.0087
vn -0.9238 -0.3827 -0.0087
vn 0.3827 -0.9238 -0.0087
vn 0.9238 0.3827 -0.0087
vn -0.3827 0.9238 -0.0087
vn 0.0000 0.0000 1.0000
vn 0.0000 1.0000 0.0000
vn -1.0000 0.0000 0.0000
vn 1.0000 0.0000 0.0000
vn 0.0000 -1.0000 0.0000
vn 0.3733 -0.9013 0.2195
vn -0.9013 -0.3733 0.2195
vn -0.9013 0.3733 0.2195
vn 0.3733 0.9013 0.2195
vn 0.9013 -0.3733 0.2195
vn -0.3733 -0.9013 0.2195
vn -0.3733 0.9013 0.2195
vn 0.9013 0.3733 0.2195
vn -0.3603 0.8697 0.3373
vn 0.8697 0.3603 0.3373
vn 0.3603 -0.8697 0.3373
vn -0.8697 -0.3603 0.3373
vn -0.8697 0.3603 0.3373
vn 0.3603 0.8697 0.3373
vn 0.8697 -0.3603 0.3373
vn -0.3603 -0.8697 0.3373
usemtl 1A1A1A
s off
f 6//1 20//1 21//1
f 5//2 20//2 18//2
f 6//3 21//3 16//3
f 6//4 16//4 14//4
f 6//5 14//5 17//5
f 5//6 18//6 11//6
f 4//7 19//7 9//7
f 3//8 15//8 7//8
f 2//9 13//9 23//9
f 1//10 12//10 25//10
f 5//11 11//11 8//11
f 4//12 9//12 22//12
f 3//13 7//13 24//13
f 2//14 23//14 26//14
f 1//15 25//15 10//15
f 25//16 12//16 26//16
f 12//17 2//17 26//17
f 23//18 13//18 24//18
f 13//19 3//19 24//19
f 7//20 15//20 22//20
f 15//21 4//21 22//21
f 9//22 19//22 8//22
f 19//23 5//23 8//23
f 11//24 18//24 10//24
f 18//25 1//25 10//25
f 17//26 12//26 1//26
f 17//27 14//27 12//27
f 14//28 2//28 12//28
f 14//29 13//29 2//29
f 14//30 16//30 13//30
f 16//31 3//31 13//31
f 16//32 15//32 3//32
f 16//33 21//33 15//33
f 21//34 4//34 15//34
f 18//35 17//35 1//35
f 18//36 20//36 17//36
f 20//37 6//37 17//37
f 21//38 19//38 4//38
f 21//39 20//39 19//39
f 20//40 5//40 19//40
f 44//41 43//41 51//41 52//41
f 43//42 50//42 58//42 51//42
f 49//43 48//43 56//43 57//43
f 47//44 46//44 54//44 55//44
f 45//45 44//45 52//45 53//45
f 50//46 49//46 57//46 58//46
f 48//47 47//47 55//47 56//47
f 46//48 45//48 53//48 54//48
f 58//49 57//49 65//49 66//49
f 56//49 55//49 63//49 64//49
f 54//49 53//49 61//49 62//49
f 52//49 51//49 59//49 60//49
f 51//49 58//49 66//49 59//49
f 57//49 56//49 64//49 65//49
f 55//49 54//49 62//49 63//49
f 53//49 52//49 60//49 61//49
f 61//45 60//45 68//45 69//45
f 66//46 65//46 73//46 74//46
f 64//47 63//47 71//47 72//47
f 62//48 61//48 69//48 70//48
f 60//41 59//41 67//41 68//41
f 59//42 66//42 74//42 67//42
f 65//43 64//43 72//43 73//43
f 63//44 62//44 70//44 71//44
f 101//49 102//49 110//49 109//49
f 99//49 100//49 108//49 107//49
f 106//49 99//49 107//49 114//49
f 104//49 105//49 113//49 112//49
f 102//49 103//49 111//49 110//49
f 100//49 101//49 109//49 108//49
f 105//49 106//49 114//49 113//49
f 103//49 104//49 112//49 111//49
f 113//50 114//50 122//50 121//50
f 111//51 112//51 120//51 119//51
f 109//52 110//52 118//52 117//52
f 107//53 108//53 116//53 115//53
f 114//54 107//54 115//54 122//54
f 112//55 113//55 121//55 120//55
f 110//56 111//56 119//56 118//56
f 108//57 109//57 117//57 116//57
f 118//49 119//49 123//49
f 116//49 117//49 123//49
f 121//49 122//49 123//49
f 119//49 120//49 123//49
f 117//49 118//49 123//49
f 115//49 116//49 123//49
f 122//49 115//49 123//49
f 120//49 121//49 123//49
f 67//58 74//58 131//58 130//58
f 73//58 72//58 125//58 124//58
f 71//58 70//58 127//58 126//58
f 69//58 68//58 129//58 128//58
f 74//58 73//58 124//58 131//58
f 72//58 71//58 126//58 125//58
f 70//58 69//58 128//58 127//58
f 68//58 67//58 130//58 129//58
f 124//43 125//43 133//43 132//43
f 130//42 131//42 139//42 138//42
f 129//41 130//41 138//41 137//41
f 127//48 128//48 136//48 135//48
f 125//47 126//47 134//47 133//47
f 131//46 124//46 132//46 139//46
f 128//45 129//45 137//45 136//45
f 126//44 127//44 135//44 134//44
f 137//49 138//49 146//49 145//49
f 135//49 136//49 144//49 143//49
f 133//49 134//49 142//49 141//49
f 139//49 132//49 140//49 147//49
f 136//49 137//49 145//49 144//49
f 134//49 135//49 143//49 142//49
f 132//49 133//49 141//49 140//49
f 138//49 139//49 147//49 146//49
f 157//58 158//58 164//58
f 163//58 156//58 164//58
f 160//58 161//58 164//58
f 158//58 159//58 164//58
f 156//58 157//58 164//58
f 162//58 163//58 164//58
f 161//58 162//58 164//58
f 159//58 160//58 164//58
usemtl 455A64
f 30//48 29//48 37//48 38//48
f 28//41 27//41 35//41 36//41
f 27//42 34//42 42//42 35//42
f 33//43 32//43 40//43 41//43
f 31//44 30//44 38//44 39//44
f 29//45 28//45 36//45 37//45
f 34//46 33//46 41//46 42//46
f 32//47 31//47 39//47 40//47
f 41//58 40//58 48//58 49//58
f 39//58 38//58 46//58 47//58
f 37//58 36//58 44//58 45//58
f 42//58 41//58 49//58 50//58
f 40//58 39//58 47//58 48//58
f 38//58 37//58 45//58 46//58
f 36//58 35//58 43//58 44//58
f 35//58 42//58 50//58 43//58
f 76//59 78//59 89//59 88//59
f 84//60 78//60 82//60 85//60
f 85//49 82//49 80//49 86//49
f 86//61 80//61 76//61 83//61
f 77//62 81//62 79//62 75//62
f 82//59 78//59 76//59 80//59
f 79//61 86//61 83//61 75//61
f 81//49 85//49 86//49 79//49
f 77//60 84//60 85//60 81//60
f 75//58 83//58 84//58 77//58
f 87//58 88//58 89//58 90//58
f 78//60 84//60 90//60 89//60
f 83//61 76//61 88//61 87//61
f 84//62 83//62 87//62 90//62
f 29//49 30//49 94//49 93//49
f 27//49 28//49 92//49 91//49
f 34//49 27//49 91//49 98//49
f 32//49 33//49 97//49 96//49
f 30//49 31//49 95//49 94//49
f 28//49 29//49 93//49 92//49
f 33//49 34//49 98//49 97//49
f 31//49 32//49 96//49 95//49
f 98//44 91//44 99//44 106//44
f 96//45 97//45 105//45 104//45
f 94//42 95//42 103//42 102//42
f 92//43 93//43 101//43 100//43
f 97//48 98//48 106//48 105//48
f 95//41 96//41 104//41 103//41
f 93//46 94//46 102//46 101//46
f 91//47 92//47 100//47 99//47
f 140//63 141//63 149//63 148//63
f 146//64 147//64 155//64 154//64
f 145//65 146//65 154//65 153//65
f 143//66 144//66 152//66 151//66
f 141//67 142//67 150//67 149//67
f 147//68 140//68 148//68 155//68
f 144//69 145//69 153//69 152//69
f 142//70 143//70 151//70 150//70
f 152//71 153//71 161//71 160//71
f 150//72 151//72 159//72 158//72
f 148//73 149//73 157//73 156//73
f 154//74 155//74 163//74 162//74
f 153//75 154//75 162//75 161//75
f 151//76 152//76 160//76 159//76
f 149//77 150//77 158//77 157//77
f 155//78 148//78 156//78 163//78
usemtl 039BE5
f 167//43 175//43 174//43 166//43
f 172//48 180//48 179//48 171//48
f 170//41 178//41 177//41 169//41
f 168//46 176//46 175//46 167//46
f 166//47 174//47 173//47 165//47
f 165//44 173//44 180//44 172//44
f 171//45 179//45 178//45 170//45
f 169//42 177//42 176//42 168//42
f 183//45 181//45 189//45 191//45
f 188//46 187//46 195//46 196//46
f 186//47 185//47 193//47 194//47
f 184//48 183//48 191//48 192//48
f 181//41 182//41 190//41 189//41
f 182//42 188//42 196//42 190//42
f 187//43 186//43 194//43 195//43
f 185//44 184//44 192//44 193//44
f 178//58 179//58 195//58 194//58
f 172//49 171//49 187//49 188//49
f 179//58 180//58 196//58 195//58
f 165//49 172//49 188//49 182//49
f 166//49 165//49 182//49 181//49
f 180//58 173//58 190//58 196//58
f 173//58 174//58 189//58 190//58
f 167//49 166//49 181//49 183//49
f 174//58 175//58 191//58 189//58
f 168//49 167//49 183//49 184//49
f 175//58 176//58 192//58 191//58
f 169//49 168//49 184//49 185//49
f 176//58 177//58 193//58 192//58
f 170//49 169//49 185//49 186//49
f 177//58 178//58 194//58 193//58
f 171//49 170//49 186//49 187//49
